<svg xmlns="http://www.w3.org/2000/svg"  viewBox="0 0 100 100" width="500px" height="500px"><path fill="#c7ede6" d="M87.215,56.71C88.35,54.555,89,52.105,89,49.5c0-6.621-4.159-12.257-10.001-14.478	C78.999,35.015,79,35.008,79,35c0-11.598-9.402-21-21-21c-9.784,0-17.981,6.701-20.313,15.757C36.211,29.272,34.638,29,33,29	c-7.692,0-14.023,5.793-14.89,13.252C12.906,43.353,9,47.969,9,53.5C9,59.851,14.149,65,20.5,65c0.177,0,0.352-0.012,0.526-0.022	C21.022,65.153,21,65.324,21,65.5C21,76.822,30.178,86,41.5,86c6.437,0,12.175-2.972,15.934-7.614C59.612,80.611,62.64,82,66,82	c4.65,0,8.674-2.65,10.666-6.518C77.718,75.817,78.837,76,80,76c6.075,0,11-4.925,11-11C91,61.689,89.53,58.727,87.215,56.71z"/><path fill="#fdfcef" d="M32.125,76.5c0,0-3.64,0-6.125,0s-4.5-2.015-4.5-4.5c0-2.333,1.782-4.229,4.055-4.455 C25.533,67.364,25.5,67.187,25.5,67c0-2.485,2.015-4.5,4.5-4.5c1.438,0,2.703,0.686,3.527,1.736C33.667,61.6,35.829,59.5,38.5,59.5 c2.761,0,5,2.239,5,5c0,0.446-0.077,0.87-0.187,1.282c0.642-0.777,1.6-1.282,2.687-1.282c1.781,0,3.234,1.335,3.455,3.055 C49.636,67.533,49.813,67.5,50,67.5c2.485,0,4.5,2.015,4.5,4.5s-2.015,4.5-4.5,4.5s-9.5,0-9.5,0h-5.375V77h-3V76.5z"/><path fill="#472b29" d="M38.5,59c3.033,0,5.5,2.467,5.5,5.5c0,0.016,0,0.031,0,0.047C44.602,64.192,45.29,64,46,64 c1.831,0,3.411,1.261,3.858,3.005C49.905,67.002,49.952,67,50,67c2.757,0,5,2.243,5,5s-2.243,5-5,5H35.125 c-0.276,0-0.5-0.224-0.5-0.5s0.224-0.5,0.5-0.5H50c2.206,0,4-1.794,4-4s-1.794-4-4-4c-0.117,0-0.23,0.017-0.343,0.032l-0.141,0.019 c-0.021,0.003-0.041,0.004-0.062,0.004c-0.246,0-0.462-0.185-0.495-0.437C48.768,66.125,47.496,65,46,65 c-0.885,0-1.723,0.401-2.301,1.1c-0.098,0.118-0.241,0.182-0.386,0.182c-0.078,0-0.156-0.018-0.228-0.056 c-0.209-0.107-0.314-0.346-0.254-0.573C42.946,65.218,43,64.852,43,64.5c0-2.481-2.019-4.5-4.5-4.5 c-2.381,0-4.347,1.872-4.474,4.263c-0.011,0.208-0.15,0.387-0.349,0.45c-0.05,0.016-0.101,0.024-0.152,0.024 c-0.15,0-0.296-0.069-0.392-0.192C32.362,63.563,31.221,63,30,63c-2.206,0-4,1.794-4,4c0,0.117,0.017,0.23,0.032,0.343l0.019,0.141 c0.016,0.134-0.022,0.268-0.106,0.373c-0.084,0.105-0.207,0.172-0.34,0.185C23.549,68.247,22,69.949,22,72c0,2.206,1.794,4,4,4 h6.125c0.276,0,0.5,0.224,0.5,0.5s-0.224,0.5-0.5,0.5H26c-2.757,0-5-2.243-5-5c0-2.397,1.689-4.413,4.003-4.877 C25.001,67.082,25,67.041,25,67c0-2.757,2.243-5,5-5c1.176,0,2.293,0.416,3.183,1.164C33.781,60.76,35.945,59,38.5,59L38.5,59z"/><path fill="#fdfcef" d="M40,66c1.403,0,2.609,0.999,2.913,2.341C43.28,68.119,43.699,68,44.125,68 c1.202,0,2.198,0.897,2.353,2.068C46.681,70.022,46.874,70,47.063,70c1.529,0,2.811,1.2,2.918,2.732 C49.99,72.87,49.886,72.99,49.749,73c-0.006,0-0.012,0-0.018,0c-0.13,0-0.24-0.101-0.249-0.232 c-0.089-1.271-1.151-2.268-2.419-2.268c-0.229,0-0.47,0.041-0.738,0.127c-0.022,0.007-0.045,0.01-0.067,0.01 c-0.055,0-0.11-0.02-0.156-0.054C46.038,70.537,46,70.455,46,70.375c0-1.034-0.841-1.875-1.875-1.875 c-0.447,0-0.885,0.168-1.231,0.473c-0.047,0.041-0.106,0.063-0.165,0.063c-0.032,0-0.063-0.006-0.093-0.019 c-0.088-0.035-0.148-0.117-0.155-0.212C42.377,67.512,41.288,66.5,40,66.5c-0.208,0-0.425,0.034-0.682,0.107 c-0.023,0.007-0.047,0.01-0.07,0.01c-0.109,0-0.207-0.073-0.239-0.182c-0.038-0.133,0.039-0.271,0.172-0.309 C39.483,66.04,39.744,66,40,66L40,66z"/><path fill="#472b29" d="M26.117,67.5c1.326,0,2.508,0.897,2.874,2.182c0.038,0.133-0.039,0.271-0.172,0.309 C28.795,69.997,28.772,70,28.75,70c-0.109,0-0.209-0.072-0.24-0.182C28.205,68.748,27.221,68,26.117,68 c-0.117,0-0.23,0.014-0.342,0.029c-0.012,0.002-0.023,0.003-0.035,0.003c-0.121,0-0.229-0.092-0.246-0.217 c-0.019-0.137,0.077-0.263,0.214-0.281C25.842,67.516,25.978,67.5,26.117,67.5L26.117,67.5z"/><path fill="#fff" d="M15.405,51H5.5C5.224,51,5,50.776,5,50.5S5.224,50,5.5,50h9.905c0.276,0,0.5,0.224,0.5,0.5 S15.682,51,15.405,51z"/><path fill="#fff" d="M18.5,51h-1c-0.276,0-0.5-0.224-0.5-0.5s0.224-0.5,0.5-0.5h1c0.276,0,0.5,0.224,0.5,0.5 S18.777,51,18.5,51z"/><path fill="#fff" d="M23.491,53H14.5c-0.276,0-0.5-0.224-0.5-0.5s0.224-0.5,0.5-0.5h8.991c0.276,0,0.5,0.224,0.5,0.5 S23.767,53,23.491,53z"/><path fill="#fff" d="M12.5,53h-1c-0.276,0-0.5-0.224-0.5-0.5s0.224-0.5,0.5-0.5h1c0.276,0,0.5,0.224,0.5,0.5 S12.777,53,12.5,53z"/><path fill="#fff" d="M9.5,53h-2C7.224,53,7,52.776,7,52.5S7.224,52,7.5,52h2c0.276,0,0.5,0.224,0.5,0.5S9.777,53,9.5,53z"/><path fill="#fff" d="M15.5,55h-2c-0.276,0-0.5-0.224-0.5-0.5s0.224-0.5,0.5-0.5h2c0.276,0,0.5,0.224,0.5,0.5 S15.776,55,15.5,55z"/><path fill="#fff" d="M18.5,46c-0.177,0-0.823,0-1,0c-0.276,0-0.5,0.224-0.5,0.5c0,0.276,0.224,0.5,0.5,0.5 c0.177,0,0.823,0,1,0c0.276,0,0.5-0.224,0.5-0.5C19,46.224,18.776,46,18.5,46z"/><path fill="#fff" d="M18.5,48c-0.177,0-4.823,0-5,0c-0.276,0-0.5,0.224-0.5,0.5c0,0.276,0.224,0.5,0.5,0.5 c0.177,0,4.823,0,5,0c0.276,0,0.5-0.224,0.5-0.5C19,48.224,18.776,48,18.5,48z"/><path fill="#fff" d="M23.5,50c-0.177,0-2.823,0-3,0c-0.276,0-0.5,0.224-0.5,0.5c0,0.276,0.224,0.5,0.5,0.5 c0.177,0,2.823,0,3,0c0.276,0,0.5-0.224,0.5-0.5C24,50.224,23.776,50,23.5,50z"/><path fill="#fff" d="M85.5,65h-10c-0.276,0-0.5-0.224-0.5-0.5s0.224-0.5,0.5-0.5h10c0.276,0,0.5,0.224,0.5,0.5 S85.776,65,85.5,65z"/><path fill="#fff" d="M89.5,65h-2c-0.276,0-0.5-0.224-0.5-0.5s0.224-0.5,0.5-0.5h2c0.276,0,0.5,0.224,0.5,0.5 S89.776,65,89.5,65z"/><path fill="#fff" d="M94.5,67h-10c-0.276,0-0.5-0.224-0.5-0.5s0.224-0.5,0.5-0.5h10c0.276,0,0.5,0.224,0.5,0.5 S94.777,67,94.5,67z"/><path fill="#fff" d="M82.5,67h-1c-0.276,0-0.5-0.224-0.5-0.5s0.224-0.5,0.5-0.5h1c0.276,0,0.5,0.224,0.5,0.5 S82.776,67,82.5,67z"/><path fill="#fff" d="M79.375,67H77.5c-0.276,0-0.5-0.224-0.5-0.5s0.224-0.5,0.5-0.5h1.875c0.276,0,0.5,0.224,0.5,0.5 S79.651,67,79.375,67z"/><path fill="#fff" d="M88.5,63h-5c-0.276,0-0.5-0.224-0.5-0.5s0.224-0.5,0.5-0.5h5c0.276,0,0.5,0.224,0.5,0.5 S88.777,63,88.5,63z"/><path fill="#fff" d="M85.5,69h-2c-0.276,0-0.5-0.224-0.5-0.5s0.224-0.5,0.5-0.5h2c0.276,0,0.5,0.224,0.5,0.5 S85.776,69,85.5,69z"/><g><path fill="#1e65d6" d="M69.3,46.185V45.7c0-9.374-7.926-17-17.3-17h-4c-9.374,0-17.3,7.626-17.3,17v0.485 c-3.049,2.012-5,5.457-5,9.278v1.008c0,5.17,3.564,9.658,8.6,10.829V45.7c0-7.168,6.532-13.4,13.7-13.4h4 c7.168,0,13.7,6.232,13.7,13.4v21.6c5.036-1.171,8.6-5.659,8.6-10.829v-1.008C74.3,51.641,72.349,48.197,69.3,46.185z"/><path fill="#472b29" d="M65.7,68c-0.157,0-0.311-0.053-0.436-0.152C65.098,67.715,65,67.513,65,67.3V45.7 C65,39.053,58.804,33,52,33h-4c-6.804,0-13,6.053-13,12.7v21.6c0,0.213-0.098,0.416-0.265,0.548 c-0.167,0.132-0.385,0.183-0.594,0.133C28.759,66.73,25,61.997,25,56.471v-1.008c0-3.853,1.862-7.431,5-9.648V45.7 C30,35.94,38.075,28,48,28h4c9.925,0,18,7.94,18,17.7v0.115c3.138,2.217,5,5.795,5,9.648v1.008 c0,5.526-3.759,10.259-9.141,11.511C65.806,67.994,65.753,68,65.7,68z M48,31.6h4c7.671,0,14.4,6.589,14.4,14.101v20.68 c4.281-1.381,7.199-5.338,7.199-9.91v-1.008c0-3.508-1.751-6.758-4.686-8.694c-0.196-0.13-0.314-0.349-0.314-0.584V45.7 c0-8.835-7.602-16.3-16.6-16.3h-4c-8.998,0-16.6,7.464-16.6,16.3v0.484c0,0.235-0.118,0.455-0.314,0.584 c-2.934,1.936-4.686,5.186-4.686,8.694v1.008c0,4.572,2.918,8.528,7.199,9.91V45.7C33.6,38.189,40.329,31.6,48,31.6z"/></g><g><polygon fill="#f8e55b" points="37.625,51.25 45.75,42.125 47.5,45.625 49.75,40.5 53.875,47.375 56.5,40.75 57.625,49.5 59.5,48.625 62.545,51.555 62.5,65.75 60.25,66.5 59,71.25 54.5,68.25 52.625,70.875 51.375,69.625 49.5,72.125 46.375,68.625 43.875,70.5 37.5,66.25"/><path fill="#472b29" d="M49.5,72.25c-0.036,0-0.069-0.015-0.093-0.042l-3.048-3.414l-1.759,1.319 c-0.055,0.042-0.133,0.031-0.175-0.025c-0.042-0.056-0.03-0.134,0.025-0.175l1.851-1.388c0.051-0.039,0.125-0.032,0.168,0.017 l3.023,3.386l1.783-2.378c0.022-0.029,0.055-0.047,0.091-0.049c0.034-0.008,0.071,0.011,0.097,0.036l1.152,1.152 c0.041-0.028,0.098-0.029,0.142,0.002c0.056,0.04,0.069,0.118,0.029,0.174l-0.059,0.083c-0.021,0.03-0.055,0.049-0.091,0.052 c-0.042,0.004-0.073-0.01-0.099-0.036l-1.148-1.148L49.6,72.2c-0.022,0.03-0.057,0.048-0.095,0.05 C49.503,72.25,49.502,72.25,49.5,72.25z M59,71.375c-0.024,0-0.048-0.007-0.069-0.021l-2.939-1.959 c-0.058-0.038-0.073-0.116-0.035-0.173s0.116-0.072,0.173-0.035l2.794,1.862l1.205-4.581c0.011-0.041,0.042-0.074,0.082-0.087 l2.165-0.722l0.044-14.051l-2.945-2.834l-1.797,0.839c-0.036,0.016-0.079,0.015-0.113-0.004c-0.035-0.019-0.059-0.054-0.064-0.093 l-1.063-8.27l-2.447,6.174c-0.018,0.044-0.059,0.075-0.106,0.079c-0.046,0.011-0.093-0.019-0.118-0.06l-1.413-2.354 c-0.035-0.06-0.016-0.136,0.043-0.172c0.06-0.035,0.136-0.017,0.172,0.043l1.282,2.138l2.532-6.39 c0.021-0.053,0.075-0.08,0.132-0.078c0.057,0.007,0.101,0.052,0.108,0.108l1.103,8.581l1.72-0.803 c0.046-0.022,0.102-0.012,0.14,0.023l3.045,2.93c0.024,0.023,0.038,0.056,0.038,0.09L62.625,65.75c0,0.054-0.035,0.101-0.085,0.118 l-2.186,0.729l-1.232,4.685c-0.01,0.039-0.039,0.071-0.077,0.085C59.03,71.373,59.015,71.375,59,71.375z M42.886,69.966 c-0.024,0-0.048-0.007-0.069-0.021l-5.386-3.591c-0.035-0.023-0.056-0.063-0.056-0.105l0.029-3.527 c0-0.069,0.057-0.124,0.125-0.124c0,0,0,0,0.001,0c0.069,0,0.125,0.057,0.124,0.126l-0.029,3.459l5.33,3.553 c0.058,0.038,0.073,0.116,0.035,0.173C42.966,69.946,42.926,69.966,42.886,69.966z M37.554,59.848 C37.554,59.848,37.554,59.848,37.554,59.848c-0.07,0-0.125-0.057-0.125-0.126l0.071-8.473c0-0.03,0.012-0.06,0.032-0.082 l7.98-8.962c0.045-0.051,0.125-0.056,0.176-0.01c0.052,0.046,0.056,0.125,0.01,0.176l-7.949,8.927l-0.07,8.426 C37.679,59.793,37.623,59.848,37.554,59.848z M47.5,45.75c-0.047,0-0.091-0.027-0.112-0.069l-0.953-1.906 c-0.031-0.062-0.006-0.137,0.056-0.167c0.061-0.028,0.137-0.006,0.167,0.056l0.834,1.667l2.143-4.881 c0.019-0.043,0.06-0.071,0.106-0.074c0.039-0.011,0.091,0.02,0.115,0.06l1.168,1.948c0.036,0.059,0.017,0.136-0.042,0.171 c-0.061,0.035-0.136,0.017-0.172-0.042l-1.044-1.741l-2.153,4.904c-0.019,0.044-0.063,0.073-0.111,0.075 C47.502,45.75,47.501,45.75,47.5,45.75z"/></g><polygon fill="#ff991f" points="61.75,62.75 60,60.375 58.5,67.625 57.75,59.625 56.5,67.875 54.5,59.75 52.75,67.625 52,60.25 49.75,69 48.875,60.75 48,67.75 45.875,58.75 44.5,66.375 42.75,59.75 42.5,66.625 40.75,60.125 40.5,66 38.625,60.25 38.625,56 39.575,57.071 40.625,50 41.355,58.092 42.875,47.5 44.125,57.625 45.5,44.875 47.5,60 49.75,43.25 50.5,57.25 52.625,47.75 54.125,57.25 56.25,44.375 57.125,56.75 59.375,51 60.125,57.375 61.5,52.75"/><g><path fill="#fdfcef" d="M73.5,37.5c0,0,1.567,0,3.5,0s3.5-1.567,3.5-3.5c0-1.781-1.335-3.234-3.055-3.455 C77.473,30.366,77.5,30.187,77.5,30c0-1.933-1.567-3.5-3.5-3.5c-1.032,0-1.95,0.455-2.59,1.165 c-0.384-1.808-1.987-3.165-3.91-3.165c-2.209,0-4,1.791-4,4c0,0.191,0.03,0.374,0.056,0.558C63.128,28.714,62.592,28.5,62,28.5 c-1.228,0-2.245,0.887-2.455,2.055C59.366,30.527,59.187,30.5,59,30.5c-1.933,0-3.5,1.567-3.5,3.5s1.567,3.5,3.5,3.5s7.5,0,7.5,0 V38h7V37.5z"/><path fill="#472b29" d="M75.25,33C75.112,33,75,32.888,75,32.75c0-1.223,0.995-2.218,2.218-2.218 c0.034,0.009,0.737-0.001,1.244,0.136c0.133,0.036,0.212,0.173,0.176,0.306c-0.036,0.134-0.173,0.213-0.306,0.176 c-0.444-0.12-1.1-0.12-1.113-0.118c-0.948,0-1.719,0.771-1.719,1.718C75.5,32.888,75.388,33,75.25,33z"/><circle cx="68.5" cy="37.5" r=".5" fill="#472b29"/><path fill="#472b29" d="M77,38h-3.5c-0.276,0-0.5-0.224-0.5-0.5s0.224-0.5,0.5-0.5H77c1.654,0,3-1.346,3-3 c0-1.496-1.125-2.768-2.618-2.959c-0.134-0.018-0.255-0.088-0.336-0.196s-0.115-0.244-0.094-0.377C76.975,30.314,77,30.16,77,30 c0-1.654-1.346-3-3-3c-0.85,0-1.638,0.355-2.219,1c-0.125,0.139-0.321,0.198-0.5,0.148c-0.182-0.049-0.321-0.195-0.36-0.379 C70.58,26.165,69.141,25,67.5,25c-1.93,0-3.5,1.57-3.5,3.5c0,0.143,0.021,0.28,0.041,0.418c0.029,0.203-0.063,0.438-0.242,0.54 c-0.179,0.102-0.396,0.118-0.556-0.01C62.878,29.155,62.449,29,62,29c-0.966,0-1.792,0.691-1.963,1.644 c-0.048,0.267-0.296,0.446-0.569,0.405C59.314,31.025,59.16,31,59,31c-1.654,0-3,1.346-3,3s1.346,3,3,3h7.5 c0.276,0,0.5,0.224,0.5,0.5S66.776,38,66.5,38H59c-2.206,0-4-1.794-4-4s1.794-4,4-4c0.059,0,0.116,0.002,0.174,0.006 C59.588,28.82,60.711,28,62,28c0.349,0,0.689,0.061,1.011,0.18C63.176,25.847,65.126,24,67.5,24c1.831,0,3.466,1.127,4.153,2.774 C72.333,26.276,73.155,26,74,26c2.206,0,4,1.794,4,4c0,0.048-0.001,0.095-0.004,0.142C79.739,30.59,81,32.169,81,34 C81,36.206,79.206,38,77,38z"/><path fill="#472b29" d="M71.5,37c-0.159,0-0.841,0-1,0c-0.276,0-0.5,0.224-0.5,0.5c0,0.276,0.224,0.5,0.5,0.5 c0.159,0,0.841,0,1,0c0.276,0,0.5-0.224,0.5-0.5C72,37.224,71.776,37,71.5,37z"/></g><polygon fill="#ee3e54" points="61.528,53.875 61.166,53.875 60.125,57.375 59.926,55.68 58.713,56.875 57.894,54.784 57.125,56.75 56.922,53.875 55.818,56.875 54.682,53.875 54.125,57.25 53.592,53.875 52.435,55.875 51.255,53.875 50.5,57.25 50.319,53.875 49.179,56.875 48.126,55.343 47.5,60 46.69,53.875 45.966,56.875 44.529,53.875 44.125,57.625 43.891,55.729 42.96,56.875 41.664,55.942 41.355,58.092 40.975,53.875 39.575,57.071 38.625,56 38.625,60.25 39.318,62.375 40.654,62.375 40.75,60.125 42.655,62.375 42.75,59.75 43.027,60.797 43.443,59.375 45.419,61.276 45.875,58.75 46.34,60.72 47.731,60.375 47.869,62.375 48.672,62.375 48.875,60.75 49.047,62.375 50.448,61.375 51.454,62.375 52,60.25 52.216,62.375 52.689,60.375 53.917,62.375 54.5,59.75 55.146,62.375 56.409,59.375 57.333,61.375 57.75,59.625 59.586,62.375 60,60.375 61.474,62.375 61.741,62.375"/><g><path fill="#472b29" d="M49.75,69.25c-0.006,0-0.012,0-0.018,0c-0.121-0.009-0.218-0.103-0.23-0.223l-0.647-6.098 l-0.606,4.853c-0.015,0.12-0.114,0.212-0.234,0.218c-0.13,0.012-0.229-0.074-0.257-0.192l-1.849-7.831l-1.162,6.442 c-0.021,0.115-0.119,0.201-0.236,0.206c-0.094,0.009-0.222-0.073-0.251-0.186l-1.32-4.996l-0.188,5.191 c-0.005,0.124-0.099,0.225-0.222,0.239c-0.127,0.012-0.238-0.064-0.27-0.184l-1.328-4.932l-0.181,4.253 c-0.005,0.121-0.096,0.221-0.216,0.237c-0.122,0.016-0.234-0.055-0.272-0.17l-1.875-5.75c-0.008-0.025-0.012-0.051-0.012-0.078V56 c0-0.104,0.064-0.197,0.161-0.234c0.096-0.035,0.208-0.01,0.276,0.068l0.595,0.67l0.971-6.541c0.018-0.125,0.133-0.213,0.254-0.213 c0.126,0.004,0.23,0.102,0.242,0.228l0.538,5.96l1.215-8.473c0.018-0.124,0.123-0.214,0.25-0.214 c0.125,0.001,0.23,0.095,0.246,0.219l0.985,7.979l1.143-10.601c0.014-0.126,0.119-0.222,0.246-0.223 c0.11,0.002,0.234,0.092,0.251,0.217l1.754,13.266l2-14.891c0.017-0.128,0.153-0.212,0.257-0.217 c0.129,0.005,0.233,0.108,0.24,0.237l0.653,12.186l1.729-7.728c0.026-0.117,0.131-0.218,0.252-0.195 c0.12,0.004,0.22,0.092,0.239,0.211l1.258,7.971l1.873-11.347c0.021-0.125,0.137-0.216,0.258-0.209 c0.126,0.006,0.229,0.105,0.238,0.232l0.797,11.269l1.846-4.718c0.042-0.106,0.149-0.175,0.265-0.157 c0.114,0.015,0.203,0.105,0.216,0.219l0.608,5.169l1.029-3.461c0.035-0.118,0.157-0.189,0.272-0.177 c0.122,0.017,0.214,0.119,0.217,0.242l0.248,9.922c0.009,0.026,0.015,0.055,0.015,0.084c0,0.14-0.103,0.251-0.256,0.25 c-0.079-0.015-0.158-0.035-0.208-0.102l-1.417-1.924l-1.387,6.701c-0.025,0.122-0.129,0.211-0.258,0.199 c-0.124-0.007-0.224-0.103-0.235-0.226l-0.56-5.969l-0.944,6.233c-0.018,0.118-0.117,0.207-0.236,0.212 c-0.128,0.005-0.226-0.074-0.254-0.19l-1.745-7.088l-1.518,6.833c-0.026,0.12-0.139,0.208-0.259,0.195 c-0.123-0.007-0.222-0.102-0.234-0.224l-0.608-5.981l-1.901,7.393C49.963,69.173,49.863,69.25,49.75,69.25z M48.875,60.5 c0.001,0,0.001,0,0.002,0c0.127,0.001,0.233,0.097,0.246,0.224l0.729,6.874l1.905-7.41C51.789,60.071,51.901,60,52.019,60 c0.121,0.009,0.218,0.104,0.23,0.224l0.593,5.834l1.414-6.363c0.025-0.113,0.125-0.194,0.241-0.196 c0.127-0.015,0.218,0.078,0.246,0.19l1.699,6.901l1.062-7.004c0.019-0.125,0.128-0.209,0.254-0.212 c0.126,0.004,0.23,0.101,0.242,0.227l0.594,6.339l1.162-5.616c0.02-0.097,0.095-0.172,0.191-0.193 c0.097-0.022,0.196,0.017,0.254,0.096l1.279,1.736l-0.191-7.627l-0.925,3.111c-0.033,0.114-0.137,0.184-0.261,0.178 c-0.118-0.01-0.213-0.102-0.227-0.22l-0.633-5.382l-1.886,4.819c-0.042,0.108-0.148,0.175-0.271,0.156 c-0.116-0.018-0.204-0.113-0.212-0.229L56.15,46.513l-1.779,10.778c-0.02,0.121-0.124,0.209-0.247,0.209c0,0,0,0-0.001,0 c-0.123,0-0.227-0.09-0.246-0.211l-1.295-8.205l-1.838,8.22c-0.027,0.122-0.135,0.209-0.265,0.194 c-0.124-0.01-0.222-0.111-0.229-0.236l-0.607-11.338l-1.896,14.108c-0.017,0.124-0.123,0.217-0.248,0.217c0,0,0,0,0,0 c-0.125,0-0.231-0.093-0.248-0.217l-1.727-13.06l-1.152,10.679c-0.014,0.126-0.12,0.222-0.247,0.223c0,0-0.001,0-0.002,0 c-0.126,0-0.232-0.094-0.248-0.219l-1.021-8.266l-1.253,8.737c-0.018,0.125-0.122,0.233-0.254,0.214 c-0.127-0.003-0.231-0.101-0.243-0.228l-0.542-6.004l-0.742,4.998c-0.014,0.096-0.083,0.175-0.176,0.203 c-0.092,0.027-0.193-0.001-0.258-0.074l-0.513-0.579v3.552l1.434,4.397l0.191-4.494c0.005-0.123,0.1-0.224,0.223-0.238 c0.127-0.013,0.237,0.065,0.269,0.184l1.319,4.899l0.189-5.218c0.005-0.124,0.099-0.226,0.222-0.239 c0.13-0.013,0.238,0.066,0.27,0.185l1.462,5.536l1.175-6.516c0.021-0.117,0.121-0.202,0.239-0.206 c0.144,0.012,0.223,0.078,0.25,0.192l1.806,7.648l0.703-5.622C48.643,60.594,48.749,60.5,48.875,60.5z"/></g><g><path fill="#1e65d6" d="M37.585,66.957L36.5,67.5v-23l1.085,0.543c0.561,0.28,0.915,0.853,0.915,1.48v18.954 C38.5,66.104,38.146,66.677,37.585,66.957z"/><path fill="#472b29" d="M36.5,68c-0.091,0-0.183-0.025-0.263-0.075C36.09,67.834,36,67.673,36,67.5v-23 c0-0.173,0.09-0.334,0.237-0.425s0.332-0.099,0.486-0.022l1.085,0.542C38.543,44.962,39,45.701,39,46.523v18.954 c0,0.822-0.457,1.561-1.191,1.928l-1.085,0.542C36.653,67.982,36.577,68,36.5,68z M37,45.309v21.382l0.361-0.181 C37.755,66.313,38,65.917,38,65.477V46.523c0-0.44-0.245-0.836-0.639-1.033L37,45.309z"/></g><g><path fill="#1e65d6" d="M62.415,66.957L63.5,67.5v-23l-1.085,0.543c-0.561,0.28-0.915,0.853-0.915,1.48v18.954 C61.5,66.104,61.854,66.677,62.415,66.957z"/><path fill="#472b29" d="M63.5,68c-0.077,0-0.153-0.018-0.224-0.053l-1.085-0.542C61.457,67.038,61,66.299,61,65.477V46.523 c0-0.822,0.457-1.561,1.191-1.928l1.085-0.542c0.154-0.077,0.338-0.069,0.486,0.022C63.91,44.166,64,44.327,64,44.5v23 c0,0.173-0.09,0.334-0.237,0.425C63.683,67.975,63.591,68,63.5,68z M63,45.309l-0.361,0.181C62.245,45.687,62,46.083,62,46.523 v18.954c0,0.44,0.245,0.836,0.639,1.033L63,66.691V45.309z"/></g><g><path fill="#472b29" d="M29.578,58.686c-0.106,0-0.205-0.068-0.239-0.175c-0.212-0.68-0.32-1.38-0.32-2.08v-0.867 c0-2.336,1.204-4.6,3.39-6.373c0.106-0.087,0.264-0.071,0.352,0.037c0.087,0.107,0.07,0.265-0.037,0.352 c-2.067,1.676-3.206,3.802-3.206,5.984v0.867c0,0.649,0.1,1.299,0.297,1.93c0.041,0.132-0.032,0.272-0.164,0.313 C29.628,58.683,29.603,58.686,29.578,58.686z"/><path fill="#472b29" d="M31.069,61.383c-0.072,0-0.144-0.031-0.193-0.091c-0.227-0.276-0.436-0.562-0.622-0.849 c-0.075-0.116-0.042-0.271,0.074-0.346c0.115-0.073,0.271-0.042,0.346,0.074c0.175,0.271,0.373,0.541,0.588,0.803 c0.087,0.106,0.072,0.264-0.035,0.352C31.182,61.365,31.125,61.383,31.069,61.383z"/></g><g><path fill="#472b29" d="M30,47.25c-0.082,0-0.162-0.04-0.209-0.114c-0.075-0.116-0.042-0.271,0.073-0.346l2.5-1.625 c0.116-0.076,0.271-0.042,0.346,0.073s0.042,0.271-0.073,0.346l-2.5,1.625C30.094,47.237,30.047,47.25,30,47.25z"/></g><g><path fill="#472b29" d="M70.557,58.686c-0.024,0-0.05-0.003-0.075-0.011c-0.132-0.042-0.205-0.182-0.164-0.313 c0.197-0.631,0.297-1.281,0.297-1.93v-0.867c0-2.182-1.138-4.308-3.206-5.984c-0.107-0.087-0.124-0.245-0.037-0.352 c0.088-0.107,0.245-0.123,0.352-0.037c2.186,1.774,3.39,4.037,3.39,6.373v0.867c0,0.7-0.107,1.399-0.32,2.08 C70.762,58.618,70.663,58.686,70.557,58.686z"/><path fill="#472b29" d="M69.065,61.383c-0.056,0-0.112-0.019-0.159-0.057c-0.106-0.088-0.122-0.246-0.035-0.352 c0.215-0.262,0.413-0.532,0.588-0.803c0.076-0.117,0.231-0.147,0.346-0.074c0.116,0.075,0.149,0.23,0.074,0.346 c-0.186,0.287-0.395,0.572-0.622,0.849C69.209,61.352,69.138,61.383,69.065,61.383z"/></g><g><path fill="#472b29" d="M70.135,47.25c-0.047,0-0.094-0.013-0.136-0.041l-2.5-1.625c-0.116-0.075-0.148-0.23-0.073-0.346 c0.076-0.116,0.232-0.148,0.346-0.073l2.5,1.625c0.116,0.075,0.148,0.23,0.073,0.346C70.296,47.21,70.216,47.25,70.135,47.25z"/></g></svg>